STARTFONT 2.1
FONT -Deviation--15-150-75-75
SIZE 15 75 75
FONTBOUNDINGBOX 15 15 0 -3
STARTPROPERTIES 8
FONT_NAME "Deviation"
FONT_ASCENT 12
FONT_DESCENT 3
PIXEL_SIZE 15
POINT_SIZE 150
RESOLUTION_X 75
RESOLUTION_Y 75
RESOLUTION 75
ENDPROPERTIES
CHARS 37
STARTCHAR uni0022
ENCODING 34
SWIDTH 500 0
DWIDTH 6 0
BBX 4 4 0 8
BITMAP
90
90
90
90
ENDCHAR
STARTCHAR uni002A
ENCODING 42
SWIDTH 500 0
DWIDTH 6 0
BBX 6 6 0 5
BITMAP
20
EC
30
50
58
00
ENDCHAR
STARTCHAR uni00BC
ENCODING 188
SWIDTH 500 0
DWIDTH 6 0
BBX 9 11 0 0
BITMAP
4100
C200
4200
4400
4400
4900
0B00
0D00
1780
1100
2100
ENDCHAR
STARTCHAR uni00BD
ENCODING 189
SWIDTH 500 0
DWIDTH 6 0
BBX 9 11 0 0
BITMAP
4200
C400
4400
4800
4800
5100
1080
1080
2080
2100
4180
ENDCHAR
STARTCHAR uni00BE
ENCODING 190
SWIDTH 500 0
DWIDTH 6 0
BBX 11 11 0 0
BITMAP
C080
2100
4100
2200
2200
C440
04C0
0540
09E0
0840
1040
ENDCHAR
STARTCHAR uni00C3
ENCODING 195
SWIDTH 500 0
DWIDTH 6 0
BBX 7 12 0 0
BITMAP
28
38
00
10
28
28
28
44
44
7C
82
82
ENDCHAR
STARTCHAR uni00D1
ENCODING 209
SWIDTH 500 0
DWIDTH 6 0
BBX 6 12 0 0
BITMAP
28
38
00
84
C4
A4
A4
94
94
8C
8C
84
ENDCHAR
STARTCHAR uni00D4
ENCODING 212
SWIDTH 500 0
DWIDTH 6 0
BBX 6 12 0 0
BITMAP
20
50
00
30
48
84
84
84
84
84
48
30
ENDCHAR
STARTCHAR uni00D6
ENCODING 214
SWIDTH 500 0
DWIDTH 6 0
BBX 6 11 0 0
BITMAP
50
00
30
48
84
84
84
84
84
48
30
ENDCHAR
STARTCHAR uni00DB
ENCODING 219
SWIDTH 500 0
DWIDTH 6 0
BBX 5 12 0 0
BITMAP
20
50
00
88
88
88
88
88
88
88
88
70
ENDCHAR
STARTCHAR uni00E5
ENCODING 229
SWIDTH 500 0
DWIDTH 6 0
BBX 5 12 0 0
BITMAP
20
50
20
00
70
08
08
78
88
88
88
78
ENDCHAR
STARTCHAR uni00E6
ENCODING 230
SWIDTH 500 0
DWIDTH 6 0
BBX 10 8 0 0
BITMAP
7700
0880
0880
7F80
8800
8800
8800
7F80
ENDCHAR
STARTCHAR uni00E8
ENCODING 232
SWIDTH 500 0
DWIDTH 6 0
BBX 5 12 0 0
BITMAP
40
20
10
00
70
88
88
F8
80
80
80
78
ENDCHAR
STARTCHAR uni00EE
ENCODING 238
SWIDTH 500 0
DWIDTH 6 0
BBX 3 12 0 0
BITMAP
40
40
A0
00
40
40
40
40
40
40
40
40
ENDCHAR
STARTCHAR uni00F1
ENCODING 241
SWIDTH 500 0
DWIDTH 6 0
BBX 6 12 0 0
BITMAP
28
50
00
00
F8
84
84
84
84
84
84
84
ENDCHAR
STARTCHAR uni00F2
ENCODING 242
SWIDTH 500 0
DWIDTH 6 0
BBX 5 12 0 0
BITMAP
40
20
10
00
70
88
88
88
88
88
88
70
ENDCHAR
STARTCHAR uni00F4
ENCODING 244
SWIDTH 500 0
DWIDTH 6 0
BBX 5 12 0 0
BITMAP
20
20
50
00
70
88
88
88
88
88
88
70
ENDCHAR
STARTCHAR uni00F5
ENCODING 245
SWIDTH 500 0
DWIDTH 6 0
BBX 5 12 0 0
BITMAP
28
50
00
00
70
88
88
88
88
88
88
70
ENDCHAR
STARTCHAR uni00FB
ENCODING 251
SWIDTH 500 0
DWIDTH 6 0
BBX 6 12 0 0
BITMAP
10
10
28
00
84
84
84
84
84
84
84
7C
ENDCHAR
STARTCHAR uni00FC
ENCODING 252
SWIDTH 500 0
DWIDTH 6 0
BBX 6 12 0 0
BITMAP
28
28
00
00
84
84
84
84
84
84
84
7C
ENDCHAR
STARTCHAR uni0102
ENCODING 258
SWIDTH 500 0
DWIDTH 6 0
BBX 7 12 0 0
BITMAP
28
38
00
10
28
28
28
44
44
7C
82
82
ENDCHAR
STARTCHAR uni0103
ENCODING 259
SWIDTH 500 0
DWIDTH 6 0
BBX 5 12 0 0
BITMAP
48
30
00
00
70
08
08
78
88
88
88
78
ENDCHAR
STARTCHAR uni0109
ENCODING 265
SWIDTH 500 0
DWIDTH 6 0
BBX 5 12 0 0
BITMAP
20
20
50
00
38
40
80
80
80
80
40
38
ENDCHAR
STARTCHAR uni010C
ENCODING 268
SWIDTH 500 0
DWIDTH 6 0
BBX 4 12 0 0
BITMAP
50
20
00
70
80
80
80
80
80
80
80
70
ENDCHAR
STARTCHAR uni0160
ENCODING 352
SWIDTH 500 0
DWIDTH 6 0
BBX 3 12 0 0
BITMAP
A0
40
00
60
80
80
80
40
20
20
20
C0
ENDCHAR
STARTCHAR uni0161
ENCODING 353
SWIDTH 500 0
DWIDTH 6 0
BBX 3 12 0 0
BITMAP
A0
40
40
00
60
80
80
40
20
20
20
C0
ENDCHAR
STARTCHAR uni016A
ENCODING 362
SWIDTH 500 0
DWIDTH 6 0
BBX 6 12 0 0
BITMAP
70
00
84
84
84
84
84
84
84
84
84
78
ENDCHAR
STARTCHAR uni016B
ENCODING 363
SWIDTH 500 0
DWIDTH 6 0
BBX 6 11 0 0
BITMAP
38
00
00
84
84
84
84
84
84
84
7C
ENDCHAR
STARTCHAR uni0174
ENCODING 372
SWIDTH 500 0
DWIDTH 6 0
BBX 8 12 0 0
BITMAP
10
28
00
81
89
89
89
95
95
A5
A5
42
ENDCHAR
STARTCHAR uni0177
ENCODING 375
SWIDTH 500 0
DWIDTH 6 0
BBX 5 15 0 -3
BITMAP
20
20
50
00
88
88
98
50
50
50
50
20
20
20
C0
ENDCHAR
STARTCHAR uni017E
ENCODING 382
SWIDTH 500 0
DWIDTH 6 0
BBX 4 12 0 0
BITMAP
50
20
20
00
F0
10
20
20
40
40
80
F0
ENDCHAR
STARTCHAR uni0218
ENCODING 536
SWIDTH 500 0
DWIDTH 6 0
BBX 4 14 0 -3
BITMAP
70
80
80
80
40
20
10
10
10
10
E0
00
20
60
ENDCHAR
STARTCHAR uni040E
ENCODING 1038
SWIDTH 500 0
DWIDTH 6 0
BBX 5 12 0 0
BITMAP
48
30
00
88
88
50
50
50
30
20
20
C0
ENDCHAR
STARTCHAR uni0419
ENCODING 1049
SWIDTH 500 0
DWIDTH 6 0
BBX 6 12 0 0
BITMAP
48
30
00
84
8C
8C
94
A4
A4
C4
84
84
ENDCHAR
STARTCHAR uni0439
ENCODING 1081
SWIDTH 500 0
DWIDTH 6 0
BBX 6 12 0 0
BITMAP
48
30
00
00
84
8C
8C
94
A4
A4
C4
C4
ENDCHAR
STARTCHAR uni0450
ENCODING 1104
SWIDTH 500 0
DWIDTH 6 0
BBX 5 12 0 0
BITMAP
40
20
10
00
70
88
88
F8
80
80
80
78
ENDCHAR
STARTCHAR uni1E82
ENCODING 7810
SWIDTH 500 0
DWIDTH 6 0
BBX 8 11 0 0
BITMAP
08
10
00
81
89
99
95
95
A5
A5
42
ENDCHAR
ENDFONT
